<?xml version="1.0" encoding="utf-8"?>
<!-- Generator: Adobe Illustrator 26.4.1, SVG Export Plug-In . SVG Version: 6.00 Build 0)  -->
<svg version="1.1" id="Calque_1" xmlns="http://www.w3.org/2000/svg" xmlns:xlink="http://www.w3.org/1999/xlink" x="0px" y="0px"
	 viewBox="0 0 318.72 318.72" style="enable-background:new 0 0 318.72 318.72;" xml:space="preserve">
<polygon points="17.63,43.4 17.63,77.76 26.22,77.76 26.22,43.4 26.22,17.63 17.63,17.63 "/>
<rect x="17.63" y="86.35" width="8.59" height="34.36"/>
<rect x="17.63" y="137.89" width="8.59" height="8.59"/>
<rect x="17.63" y="155.07" width="8.59" height="8.59"/>
<polygon points="17.63,206.61 17.63,232.37 26.22,232.37 26.22,206.61 26.22,198.02 17.63,198.02 "/>
<polygon points="17.63,283.91 17.63,301.09 26.22,301.09 26.22,283.91 26.22,240.97 17.63,240.97 "/>
<rect x="26.22" y="180.84" width="8.59" height="17.18"/>
<polygon points="34.81,60.58 43.4,60.58 51.99,60.58 60.58,60.58 60.58,43.4 51.99,43.4 43.4,43.4 34.81,43.4 "/>
<polygon points="51.99,43.4 60.58,43.4 60.58,34.81 51.99,34.81 43.4,34.81 34.81,34.81 34.81,43.4 43.4,43.4 "/>
<polygon points="51.99,283.91 60.58,283.91 60.58,258.15 51.99,258.15 43.4,258.15 34.81,258.15 34.81,283.91 43.4,283.91 "/>
<polygon points="51.99,17.63 43.4,17.63 34.81,17.63 26.22,17.63 26.22,26.22 34.81,26.22 43.4,26.22 51.99,26.22 60.58,26.22 
	69.17,26.22 69.17,17.63 60.58,17.63 "/>
<polygon points="51.99,69.17 43.4,69.17 34.81,69.17 26.22,69.17 26.22,77.76 34.81,77.76 43.4,77.76 51.99,77.76 60.58,77.76 
	69.17,77.76 69.17,69.17 60.58,69.17 "/>
<polygon points="51.99,86.35 43.4,86.35 34.81,86.35 34.81,94.94 26.22,94.94 26.22,120.71 34.81,120.71 34.81,112.12 43.4,112.12 
	43.4,129.3 34.81,129.3 26.22,129.3 26.22,146.48 34.81,146.48 43.4,146.48 43.4,163.66 51.99,163.66 51.99,137.89 43.4,137.89 
	43.4,129.3 51.99,129.3 51.99,137.89 60.58,137.89 60.58,163.66 69.17,163.66 69.17,112.12 60.58,112.12 51.99,112.12 51.99,103.53 
	60.58,103.53 60.58,94.94 69.17,94.94 69.17,86.35 60.58,86.35 "/>
<polygon points="60.58,189.43 51.99,189.43 51.99,172.25 43.4,172.25 34.81,172.25 34.81,180.84 43.4,180.84 43.4,198.02 
	34.81,198.02 34.81,206.61 43.4,206.61 43.4,215.2 51.99,215.2 51.99,206.61 60.58,206.61 60.58,232.37 69.17,232.37 69.17,206.61 
	69.17,198.02 60.58,198.02 "/>
<polygon points="51.99,240.97 43.4,240.97 34.81,240.97 26.22,240.97 26.22,249.55 34.81,249.55 43.4,249.55 51.99,249.55 
	60.58,249.55 69.17,249.55 69.17,240.97 60.58,240.97 "/>
<polygon points="51.99,292.5 43.4,292.5 34.81,292.5 26.22,292.5 26.22,301.09 34.81,301.09 43.4,301.09 51.99,301.09 60.58,301.09 
	69.17,301.09 69.17,292.5 60.58,292.5 "/>
<rect x="60.58" y="172.25" width="8.59" height="8.59"/>
<polygon points="77.76,43.4 77.76,17.63 69.17,17.63 69.17,43.4 69.17,77.76 77.76,77.76 "/>
<rect x="69.17" y="86.35" width="8.59" height="8.59"/>
<polygon points="69.17,283.91 69.17,301.09 77.76,301.09 77.76,283.91 77.76,240.97 69.17,240.97 "/>
<polygon points="86.35,112.12 86.35,103.53 77.76,103.53 69.17,103.53 69.17,112.12 77.76,112.12 "/>
<polygon points="77.76,198.02 77.76,189.43 69.17,189.43 69.17,198.02 77.76,198.02 77.76,206.61 69.17,206.61 69.17,215.19 
	77.76,215.19 77.76,223.78 69.17,223.78 69.17,232.37 77.76,232.37 86.35,232.37 86.35,223.78 94.94,223.78 94.94,215.2 
	86.35,215.2 86.35,206.61 94.94,206.61 94.94,198.02 86.35,198.02 "/>
<rect x="86.35" y="34.81" width="8.59" height="8.59"/>
<rect x="86.35" y="43.4" width="8.59" height="42.95"/>
<polygon points="86.35,120.71 77.76,120.71 69.17,120.71 69.17,129.3 77.76,129.3 77.76,137.89 69.17,137.89 69.17,146.48 
	77.76,146.48 77.76,155.07 69.17,155.07 69.17,163.66 77.76,163.66 77.76,172.25 69.17,172.25 69.17,180.84 77.76,180.84 
	77.76,180.84 86.35,180.84 86.35,189.43 94.94,189.43 94.94,155.07 86.35,155.07 86.35,129.3 94.94,129.3 94.94,112.12 
	86.35,112.12 "/>
<rect x="86.35" y="232.38" width="8.59" height="8.59"/>
<rect x="86.35" y="249.55" width="8.59" height="34.36"/>
<rect x="86.35" y="292.51" width="8.59" height="8.59"/>
<rect x="94.94" y="120.71" width="8.59" height="17.18"/>
<polygon points="94.94,155.07 94.94,172.25 103.53,172.25 103.53,163.66 112.12,163.66 112.12,146.48 120.71,146.48 120.71,129.3 
	112.12,129.3 112.12,137.89 103.53,137.89 103.53,155.07 "/>
<rect x="94.94" y="232.38" width="8.59" height="8.59"/>
<rect x="94.94" y="249.55" width="8.59" height="8.59"/>
<path d="M112.12,69.17h-8.59v8.59h-8.59v8.59h8.59v8.59h-8.59v17.18h8.59v8.59h8.59h8.59V86.35h-8.59V69.17z M112.12,112.12h-8.59
	v-8.59h8.59V112.12z"/>
<polygon points="103.53,172.25 103.53,189.43 112.12,189.43 112.12,198.02 103.53,198.02 94.94,198.02 94.94,206.61 94.94,215.19 
	103.53,215.19 103.53,223.79 112.12,223.79 120.71,223.79 120.71,206.61 120.71,206.61 120.71,163.66 112.12,163.66 112.12,172.25 
	"/>
<polygon points="103.53,266.73 94.94,266.73 94.94,283.91 103.53,283.91 103.53,275.32 112.12,275.32 112.12,283.91 103.53,283.91 
	103.53,292.5 94.94,292.5 94.94,301.09 103.53,301.09 103.53,301.09 112.12,301.09 120.71,301.09 120.71,283.91 120.71,266.73 
	112.12,266.73 112.12,258.15 103.53,258.15 "/>
<polygon points="112.12,26.22 103.53,26.22 103.53,17.63 94.94,17.63 94.94,34.81 103.53,34.81 103.53,43.4 103.53,60.58 
	112.12,60.58 112.12,69.17 120.71,69.17 120.71,60.58 112.12,60.58 112.12,51.99 120.71,51.99 120.71,43.4 112.12,43.4 
	112.12,34.81 120.71,34.81 120.71,17.63 112.12,17.63 "/>
<polygon points="112.12,240.97 103.53,240.97 103.53,249.55 112.12,249.55 112.12,258.15 120.71,258.15 120.71,240.97 
	120.71,232.38 112.12,232.38 "/>
<polygon points="129.3,43.4 120.71,43.4 120.71,77.76 129.3,77.76 129.3,69.17 137.89,69.17 137.89,86.35 129.3,86.35 120.71,86.35 
	120.71,94.94 129.3,94.94 137.89,94.94 146.48,94.94 146.48,60.58 137.89,60.58 137.89,51.99 129.3,51.99 "/>
<rect x="120.71" y="206.6" width="8.59" height="8.59"/>
<polygon points="129.3,275.33 137.89,275.33 137.89,258.15 129.3,258.15 120.71,258.15 120.71,266.74 129.3,266.74 129.3,275.32 
	120.71,275.32 120.71,283.91 129.3,283.91 "/>
<polygon points="137.89,17.63 129.3,17.63 129.3,26.22 120.71,26.22 120.71,34.81 129.3,34.81 129.3,43.4 137.89,43.4 137.89,34.81 
	146.48,34.81 146.48,26.22 137.89,26.22 "/>
<polygon points="129.3,129.3 120.71,129.3 120.71,180.84 129.3,180.84 129.3,155.07 137.89,155.07 137.89,146.48 146.48,146.48 
	146.48,129.3 137.89,129.3 "/>
<polygon points="129.3,283.91 129.3,301.09 137.89,301.09 146.48,301.09 146.48,283.91 137.89,283.91 "/>
<rect x="137.89" y="43.4" width="8.59" height="8.59"/>
<rect x="137.89" y="112.12" width="8.59" height="8.59"/>
<rect x="137.89" y="163.66" width="8.59" height="8.59"/>
<polygon points="137.89,206.61 137.89,206.61 137.89,223.79 129.3,223.79 129.3,240.97 120.71,240.97 120.71,249.55 129.3,249.55 
	137.89,249.55 137.89,240.97 137.89,240.96 146.48,240.96 146.48,206.61 146.48,206.61 146.48,189.43 137.89,189.43 "/>
<rect x="146.48" y="77.76" width="8.59" height="17.18"/>
<polygon points="146.48,103.53 146.48,120.71 155.07,120.71 163.66,120.71 163.66,94.94 155.07,94.94 155.07,103.53 "/>
<rect x="146.48" y="172.25" width="8.59" height="8.59"/>
<polygon points="146.48,206.61 146.48,232.37 155.07,232.37 155.07,215.19 163.66,215.19 172.25,215.19 172.25,206.61 
	163.66,206.61 155.07,206.61 155.07,198.02 146.48,198.02 "/>
<rect x="146.48" y="240.96" width="8.59" height="8.59"/>
<polygon points="155.07,129.3 146.48,129.3 146.48,137.89 155.07,137.89 163.66,137.89 163.66,146.48 172.25,146.48 172.25,129.3 
	163.66,129.3 "/>
<rect x="155.07" y="146.48" width="8.59" height="8.59"/>
<rect x="155.07" y="249.55" width="8.59" height="8.59"/>
<polygon points="155.07,266.73 155.07,258.15 146.48,258.15 146.48,275.32 155.07,275.32 163.66,275.32 163.66,283.91 
	172.25,283.91 172.25,266.73 163.66,266.73 "/>
<polygon points="155.07,301.09 163.66,301.09 163.66,301.09 172.25,301.09 172.25,292.5 163.66,292.5 163.66,283.91 155.07,283.91 
	"/>
<rect x="163.66" y="223.79" width="8.59" height="8.59"/>
<polygon points="172.25,17.63 163.66,17.63 163.66,26.22 155.07,26.22 146.48,26.22 146.48,43.4 146.48,69.17 155.07,69.17 
	155.07,77.76 163.66,77.76 163.66,60.58 155.07,60.58 155.07,51.99 163.66,51.99 163.66,43.4 155.07,43.4 155.07,34.81 
	163.66,34.81 163.66,43.4 172.25,43.4 172.25,43.4 180.84,43.4 180.84,34.81 172.25,34.81 172.25,26.22 180.84,26.22 189.43,26.22 
	189.43,17.63 180.84,17.63 "/>
<rect x="172.25" y="51.99" width="8.59" height="25.77"/>
<polygon points="180.84,86.35 172.25,86.35 163.66,86.35 163.66,94.94 172.25,94.94 172.25,112.12 180.84,112.12 180.84,103.53 
	189.43,103.53 189.43,94.94 180.84,94.94 "/>
<polygon points="172.25,120.71 172.25,129.3 180.84,129.3 180.84,129.3 189.43,129.3 189.43,112.12 180.84,112.12 180.84,120.71 "/>
<polygon points="180.84,155.07 180.84,163.66 172.25,163.66 172.25,155.07 163.66,155.07 163.66,163.66 155.07,163.66 
	155.07,172.25 163.66,172.25 163.66,180.84 155.07,180.84 155.07,198.02 163.66,198.02 163.66,189.43 172.25,189.43 180.84,189.43 
	180.84,180.84 172.25,180.84 172.25,172.25 180.84,172.25 180.84,172.25 189.43,172.25 189.43,137.89 180.84,137.89 180.84,146.48 
	172.25,146.48 172.25,155.07 "/>
<rect x="172.25" y="198.02" width="8.59" height="8.59"/>
<polygon points="172.25,232.38 172.25,240.96 172.25,249.55 180.84,249.55 180.84,240.96 189.43,240.96 189.43,232.38 
	180.84,232.38 "/>
<polygon points="172.25,258.15 172.25,266.73 180.84,266.73 180.84,275.32 189.43,275.32 189.43,249.56 180.84,249.56 
	180.84,258.15 "/>
<rect x="180.84" y="215.2" width="8.59" height="8.59"/>
<polygon points="198.02,163.66 189.43,163.66 189.43,180.84 198.02,180.84 198.02,189.43 206.61,189.43 206.61,180.84 
	198.02,180.84 "/>
<polygon points="189.43,266.73 189.43,275.32 198.02,275.32 206.61,275.32 206.61,266.73 198.02,266.73 "/>
<polygon points="198.02,17.63 189.43,17.63 189.43,26.22 198.02,26.22 198.02,34.81 189.43,34.81 189.43,43.4 198.02,43.4 
	198.02,43.4 189.43,43.4 189.43,51.99 198.02,51.99 198.02,60.58 189.43,60.58 189.43,77.76 198.02,77.76 198.02,69.17 
	206.61,69.17 206.61,77.76 198.02,77.76 198.02,86.35 206.61,86.35 206.61,94.94 198.02,94.94 189.43,94.94 189.43,103.53 
	198.02,103.53 198.02,112.12 189.43,112.12 189.43,120.71 198.02,120.71 206.61,120.71 215.2,120.71 215.2,112.12 206.61,112.12 
	206.61,103.53 215.2,103.53 215.2,60.58 206.61,60.58 206.61,51.99 215.2,51.99 215.2,43.4 206.61,43.4 206.61,34.81 215.2,34.81 
	215.2,17.63 206.61,17.63 "/>
<polygon points="206.61,129.3 198.02,129.3 189.43,129.3 189.43,137.89 198.02,137.89 198.02,146.48 189.43,146.48 189.43,155.07 
	198.02,155.07 206.61,155.07 206.61,146.48 215.2,146.48 215.2,137.89 206.61,137.89 "/>
<polygon points="198.02,283.91 189.43,283.91 189.43,292.5 198.02,292.5 206.61,292.5 215.2,292.5 215.2,283.91 206.61,283.91 "/>
<rect x="206.61" y="155.07" width="8.59" height="8.59"/>
<rect x="206.61" y="172.25" width="8.59" height="8.59"/>
<polygon points="206.61,206.61 198.02,206.61 198.02,215.2 189.43,215.2 189.43,223.79 198.02,223.79 206.61,223.79 206.61,232.38 
	198.02,232.38 189.43,232.38 189.43,240.97 198.02,240.97 198.02,249.55 189.43,249.55 189.43,258.14 198.02,258.14 198.02,258.15 
	206.61,258.15 206.61,240.97 215.2,240.97 215.2,215.2 206.61,215.2 206.61,206.61 215.2,206.61 215.2,189.43 206.61,189.43 "/>
<rect x="206.61" y="258.15" width="8.59" height="8.59"/>
<rect x="215.2" y="17.63" width="8.59" height="8.59"/>
<polygon points="215.2,103.53 223.79,103.53 223.79,94.94 232.38,94.94 232.38,86.35 223.79,86.35 223.79,77.76 215.2,77.76 "/>
<rect x="215.2" y="163.66" width="8.59" height="8.59"/>
<polygon points="215.2,189.43 215.2,198.02 223.79,198.02 232.38,198.02 232.38,189.43 223.79,189.43 "/>
<polygon points="223.79,215.2 215.2,215.2 215.2,232.38 223.79,232.38 223.79,240.96 215.2,240.96 215.2,258.14 223.79,258.14 
	223.79,266.73 215.2,266.73 215.2,275.32 223.79,275.32 223.79,283.91 215.2,283.91 215.2,301.09 223.79,301.09 232.37,301.09 
	232.37,283.91 232.37,240.96 232.37,223.79 223.79,223.79 "/>
<rect x="223.79" y="43.4" width="8.59" height="8.59"/>
<rect x="223.79" y="60.58" width="8.59" height="17.18"/>
<polygon points="223.79,120.71 215.2,120.71 215.2,129.3 223.79,129.3 223.79,129.3 232.37,129.3 232.37,112.12 223.79,112.12 "/>
<rect x="223.79" y="146.48" width="8.59" height="17.18"/>
<rect x="223.79" y="172.25" width="8.59" height="8.59"/>
<rect x="232.38" y="120.71" width="8.59" height="8.59"/>
<rect x="232.38" y="137.89" width="8.59" height="25.77"/>
<rect x="232.38" y="172.25" width="8.59" height="34.36"/>
<rect x="232.38" y="223.79" width="8.59" height="8.59"/>
<rect x="232.38" y="258.14" width="8.59" height="17.18"/>
<polygon points="240.97,17.63 240.97,43.4 240.97,77.76 249.55,77.76 258.14,77.76 258.14,69.17 249.55,69.17 249.55,43.4 
	249.55,26.22 258.14,26.22 258.14,17.63 249.55,17.63 "/>
<polygon points="240.97,86.35 240.97,103.53 249.55,103.53 258.14,103.53 258.14,86.35 249.55,86.35 "/>
<rect x="240.97" y="112.12" width="8.59" height="8.59"/>
<polygon points="249.56,137.89 240.97,137.89 240.97,155.07 249.56,155.07 249.56,163.66 240.97,163.66 240.97,172.25 
	249.56,172.25 249.56,206.61 240.97,206.61 240.97,215.19 249.56,215.19 258.15,215.19 258.15,206.61 258.15,155.07 249.56,155.07 
	"/>
<polygon points="240.97,223.79 240.97,232.37 249.55,232.37 258.14,232.37 258.14,223.79 249.55,223.79 "/>
<rect x="240.97" y="240.96" width="8.59" height="8.59"/>
<polygon points="240.97,258.15 240.97,266.73 249.55,266.73 258.14,266.73 258.14,258.15 249.55,258.15 "/>
<polygon points="240.97,275.32 240.97,283.91 249.55,283.91 258.14,283.91 258.14,275.32 249.55,275.32 "/>
<rect x="249.55" y="292.51" width="8.59" height="8.59"/>
<rect x="258.14" y="17.63" width="8.59" height="8.59"/>
<rect x="258.14" y="34.81" width="8.59" height="8.59"/>
<rect x="258.14" y="43.4" width="8.59" height="17.18"/>
<rect x="258.14" y="69.17" width="8.59" height="8.59"/>
<rect x="258.14" y="86.35" width="8.59" height="8.59"/>
<rect x="258.14" y="103.53" width="8.59" height="17.18"/>
<rect x="258.14" y="137.89" width="8.59" height="25.77"/>
<rect x="258.14" y="172.25" width="8.59" height="25.77"/>
<polygon points="258.14,240.97 258.14,275.33 266.73,275.33 266.73,240.97 266.73,223.79 258.14,223.79 "/>
<rect x="258.14" y="283.91" width="8.59" height="8.59"/>
<polygon points="266.74,17.63 266.74,26.22 275.32,26.22 283.91,26.22 283.91,17.63 275.32,17.63 "/>
<polygon points="266.74,34.81 266.74,43.4 275.32,43.4 283.91,43.4 283.91,34.81 275.32,34.81 "/>
<polygon points="266.74,43.4 266.74,60.58 275.32,60.58 283.91,60.58 283.91,43.4 275.32,43.4 "/>
<polygon points="266.74,69.17 266.74,77.76 275.32,77.76 283.91,77.76 283.91,69.17 275.32,69.17 "/>
<polygon points="266.74,86.35 266.74,103.53 275.32,103.53 275.32,112.12 266.74,112.12 266.74,137.89 275.32,137.89 275.32,146.48 
	266.74,146.48 266.74,155.07 275.32,155.07 283.91,155.07 283.91,129.3 275.32,129.3 275.32,120.71 283.91,120.71 283.91,86.35 
	275.32,86.35 "/>
<polygon points="266.74,163.66 266.74,172.25 275.32,172.25 275.32,180.84 266.74,180.84 266.74,206.6 266.74,223.78 275.32,223.78 
	283.91,223.78 283.91,206.6 283.91,198.02 275.32,198.02 275.32,189.43 283.91,189.43 283.91,163.66 275.32,163.66 "/>
<polygon points="266.74,283.91 266.74,301.09 275.32,301.09 275.32,292.5 283.91,292.5 283.91,283.91 275.32,283.91 "/>
<polygon points="275.32,240.97 275.32,249.55 266.74,249.55 266.74,275.32 275.32,275.32 275.32,258.15 283.91,258.15 
	283.91,240.97 283.91,232.38 275.32,232.38 "/>
<polygon points="283.92,94.94 283.92,112.12 292.5,112.12 292.5,120.71 283.92,120.71 283.92,146.48 292.5,146.48 292.5,137.89 
	301.09,137.89 301.09,112.12 292.5,112.12 292.5,103.53 301.09,103.53 301.09,94.94 292.5,94.94 "/>
<polygon points="283.92,198.02 292.5,198.02 292.5,206.6 301.09,206.6 301.09,180.84 292.5,180.84 292.5,172.25 283.92,172.25 "/>
<rect x="283.92" y="206.61" width="8.59" height="8.59"/>
<polygon points="283.92,258.15 292.5,258.15 292.5,258.14 301.09,258.14 301.09,249.56 292.5,249.56 292.5,240.97 283.92,240.97 "/>
<polygon points="283.92,266.73 283.92,275.32 292.5,275.32 301.09,275.32 301.09,266.73 292.5,266.73 "/>
<rect x="283.92" y="292.51" width="8.59" height="8.59"/>
<polygon points="292.5,17.63 283.92,17.63 283.92,26.22 292.5,26.22 292.5,43.4 292.5,69.17 283.92,69.17 283.92,77.76 292.5,77.76 
	301.09,77.76 301.09,43.4 301.09,17.63 "/>
<rect x="292.51" y="155.07" width="8.59" height="17.18"/>
<rect x="292.51" y="215.2" width="8.59" height="8.59"/>
<rect x="292.51" y="232.38" width="8.59" height="8.59"/>
</svg>
