<?xml version="1.0" encoding="utf-8"?>
<!-- Generator: Adobe Illustrator 26.4.1, SVG Export Plug-In . SVG Version: 6.00 Build 0)  -->
<svg version="1.1" id="Calque_1" xmlns="http://www.w3.org/2000/svg" xmlns:xlink="http://www.w3.org/1999/xlink" x="0px" y="0px"
	 viewBox="0 0 318.72 318.72" style="enable-background:new 0 0 318.72 318.72;" xml:space="preserve">
<polygon points="26.22,129.3 17.63,129.3 17.63,146.48 26.22,146.48 26.22,137.89 34.81,137.89 43.4,137.89 43.4,129.3 34.81,129.3 
	"/>
<rect x="26.22" y="146.48" width="8.59" height="8.59"/>
<polygon points="26.22,198.02 26.22,189.43 17.63,189.43 17.63,206.61 17.63,232.38 26.22,232.38 26.22,206.61 34.81,206.61 
	34.81,232.38 43.4,232.38 51.99,232.38 51.99,215.2 43.4,215.2 43.4,206.61 43.4,198.02 34.81,198.02 "/>
<polygon points="34.81,17.63 26.22,17.63 17.63,17.63 17.63,43.4 17.63,77.76 26.22,77.76 34.81,77.76 43.4,77.76 51.99,77.76 
	51.99,69.17 43.4,69.17 34.81,69.17 26.22,69.17 26.22,43.4 26.22,26.22 34.81,26.22 43.4,26.22 51.99,26.22 51.99,17.63 
	43.4,17.63 "/>
<polygon points="34.81,34.81 34.81,43.4 34.81,60.58 43.4,60.58 51.99,60.58 51.99,43.4 51.99,34.81 43.4,34.81 "/>
<polygon points="34.81,86.35 34.81,94.94 26.22,94.94 26.22,86.35 17.63,86.35 17.63,120.71 26.22,120.71 34.81,120.71 43.4,120.71 
	43.4,129.3 51.99,129.3 51.99,86.35 43.4,86.35 "/>
<polygon points="34.81,240.97 26.22,240.97 17.63,240.97 17.63,283.91 26.22,283.91 26.22,249.56 34.81,249.56 43.4,249.56 
	51.99,249.56 51.99,240.97 43.4,240.97 "/>
<polygon points="34.81,258.14 34.81,283.91 43.4,283.91 51.99,283.91 51.99,258.14 43.4,258.14 "/>
<polygon points="34.81,292.51 26.22,292.51 26.22,283.92 17.63,283.92 17.63,301.1 26.22,301.1 34.81,301.1 43.4,301.1 51.99,301.1 
	51.99,292.51 43.4,292.51 "/>
<rect x="43.4" y="137.89" width="8.59" height="8.59"/>
<polygon points="43.4,163.66 34.81,163.66 26.22,163.66 17.63,163.66 17.63,172.25 26.22,172.25 26.22,180.84 34.81,180.84 
	43.4,180.84 51.99,180.84 51.99,155.07 43.4,155.07 "/>
<rect x="43.4" y="189.43" width="8.59" height="8.59"/>
<polygon points="60.58,43.4 60.58,34.81 51.99,34.81 51.99,43.4 51.99,60.58 60.58,60.58 "/>
<rect x="51.99" y="215.2" width="8.59" height="8.59"/>
<rect x="51.99" y="258.15" width="8.59" height="25.77"/>
<polygon points="69.17,77.76 77.76,77.76 77.76,43.4 77.76,17.63 69.17,17.63 60.58,17.63 51.99,17.63 51.99,26.22 60.58,26.22 
	69.17,26.22 69.17,43.4 69.17,69.17 60.58,69.17 51.99,69.17 51.99,77.76 60.58,77.76 "/>
<polygon points="60.58,240.97 51.99,240.97 51.99,249.56 60.58,249.56 69.17,249.56 69.17,283.91 77.76,283.91 77.76,240.97 
	69.17,240.97 "/>
<polygon points="69.17,103.53 69.17,94.94 77.76,94.94 77.76,86.35 69.17,86.35 60.58,86.35 51.99,86.35 51.99,103.53 60.58,103.53 
	60.58,112.12 69.17,112.12 77.76,112.12 77.76,103.53 "/>
<rect x="69.17" y="223.79" width="8.59" height="8.59"/>
<polygon points="69.17,292.51 60.58,292.51 51.99,292.51 51.99,301.1 60.58,301.1 69.17,301.1 77.76,301.1 77.76,283.92 
	69.17,283.92 "/>
<rect x="77.76" y="94.94" width="8.59" height="8.59"/>
<polygon points="86.35,112.12 77.76,112.12 77.76,120.71 69.17,120.71 60.58,120.71 60.58,129.3 51.99,129.3 51.99,189.43 
	60.58,189.43 60.58,180.84 69.17,180.84 77.76,180.84 77.76,172.25 69.17,172.25 60.58,172.25 60.58,155.07 69.17,155.07 
	69.17,146.48 77.76,146.48 86.35,146.48 86.35,137.89 77.76,137.89 69.17,137.89 69.17,129.3 77.76,129.3 86.35,129.3 94.94,129.3 
	94.94,120.71 86.35,120.71 "/>
<polygon points="86.35,155.07 77.76,155.07 69.17,155.07 69.17,163.66 77.76,163.66 77.76,172.25 86.35,172.25 "/>
<polygon points="77.76,189.43 69.17,189.43 69.17,198.02 77.76,198.02 77.76,206.61 69.17,206.61 69.17,215.2 77.76,215.2 
	86.35,215.2 86.35,206.61 86.35,198.02 94.94,198.02 94.94,172.25 86.35,172.25 86.35,189.43 "/>
<rect x="86.35" y="215.2" width="8.59" height="8.59"/>
<rect x="86.35" y="292.5" width="8.59" height="8.59"/>
<polygon points="94.94,86.35 103.53,86.35 112.12,86.35 112.12,69.17 103.53,69.17 103.53,77.76 94.94,77.76 94.94,60.58 
	103.53,60.58 103.53,51.99 112.12,51.99 120.71,51.99 120.71,43.4 112.12,43.4 103.53,43.4 94.94,43.4 94.94,34.81 86.35,34.81 
	86.35,43.4 86.35,86.35 "/>
<polygon points="103.53,94.94 94.94,94.94 94.94,103.53 86.35,103.53 86.35,112.12 94.94,112.12 94.94,120.71 103.53,120.71 
	103.53,129.3 112.12,129.3 112.12,112.12 103.53,112.12 "/>
<polygon points="94.94,163.66 103.53,163.66 103.53,146.48 94.94,146.48 86.35,146.48 86.35,155.07 94.94,155.07 "/>
<polygon points="103.53,206.61 112.12,206.61 120.71,206.61 120.71,215.2 129.3,215.2 129.3,206.61 129.3,198.02 120.71,198.02 
	112.12,198.02 103.53,198.02 94.94,198.02 94.94,206.61 "/>
<rect x="103.53" y="17.63" width="8.59" height="8.59"/>
<polygon points="103.53,137.89 103.53,146.48 112.12,146.48 112.12,155.07 120.71,155.07 120.71,137.89 112.12,137.89 "/>
<rect x="103.53" y="180.84" width="8.59" height="8.59"/>
<rect x="103.53" y="215.2" width="8.59" height="8.59"/>
<rect x="103.53" y="283.91" width="8.59" height="17.18"/>
<rect x="112.12" y="94.94" width="8.59" height="17.18"/>
<rect x="112.12" y="172.25" width="8.59" height="8.59"/>
<rect x="120.71" y="120.71" width="8.59" height="17.18"/>
<rect x="120.71" y="180.84" width="8.59" height="8.59"/>
<rect x="120.71" y="283.92" width="8.59" height="8.59"/>
<rect x="137.89" y="120.71" width="8.59" height="8.59"/>
<path d="M137.89,137.89h-8.59v8.59h8.59v8.59h-8.59v17.18h8.59v25.77h8.59v-17.18h8.59v8.59h8.59v8.59h8.59v8.59h8.59v-17.18h-8.59
	h-8.59v-8.59h-8.59v-8.59h8.59v-8.59h-8.59v-8.59h8.59v-8.59h-8.59v8.59h-8.59v-8.59h8.59V129.3h-8.59v8.59H137.89z M155.07,172.25
	h-8.59v-8.59h8.59V172.25z"/>
<path d="M155.07,206.61h8.59v-8.59h-8.59V206.61h-8.59v8.59h-8.59v8.59h-8.59h-8.59h-8.59v8.59h-8.59h-8.59h-8.59v8.59h8.59h8.59
	v8.59h-8.59h-8.59v34.36h8.59v-8.59h8.59v8.59h8.59v-17.18h-8.59v-8.59h8.59h8.59v-8.59h8.59h8.59v17.18h-8.59v-8.59h-8.59v17.18
	h8.59v8.59h8.59v-8.59h8.59v-8.59h8.59v8.59h8.59v8.59h8.59v-25.77h-8.59v8.59h-8.59v-8.59h8.59v-8.59h-8.59v-8.59h-8.59h-8.59
	v-8.59h8.59h8.59v-8.59h8.59v-8.59h-8.59V206.61z M129.3,240.97h-8.59v-8.59h8.59V240.97z M146.48,249.56h8.59v8.59h-8.59V249.56z"
	/>
<rect x="155.07" y="69.17" width="8.59" height="17.18"/>
<polygon points="155.07,292.51 155.07,283.92 155.07,275.33 146.48,275.33 146.48,283.92 137.89,283.92 137.89,292.51 129.3,292.51 
	129.3,301.1 137.89,301.1 146.48,301.1 155.07,301.1 163.66,301.1 172.25,301.1 172.25,292.51 163.66,292.51 "/>
<polygon points="163.66,129.3 163.66,146.48 172.25,146.48 172.25,137.89 180.84,137.89 180.84,129.3 172.25,129.3 "/>
<rect x="163.66" y="155.07" width="8.59" height="8.59"/>
<rect x="163.66" y="206.61" width="8.59" height="8.59"/>
<polygon points="163.66,249.56 172.25,249.56 172.25,240.97 180.84,240.97 189.43,240.97 189.43,232.38 180.84,232.38 
	172.25,232.38 172.25,223.79 163.66,223.79 163.66,240.97 "/>
<polygon points="172.25,17.63 163.66,17.63 163.66,26.22 155.07,26.22 146.48,26.22 146.48,34.81 137.89,34.81 137.89,43.4 
	146.48,43.4 146.48,51.99 137.89,51.99 129.3,51.99 129.3,69.17 137.89,69.17 137.89,86.35 129.3,86.35 129.3,69.17 120.71,69.17 
	120.71,94.94 129.3,94.94 129.3,120.71 137.89,120.71 137.89,112.12 146.48,112.12 146.48,120.71 155.07,120.71 163.66,120.71 
	163.66,94.94 155.07,94.94 155.07,103.53 146.48,103.53 137.89,103.53 137.89,94.94 146.48,94.94 146.48,60.58 155.07,60.58 
	163.66,60.58 163.66,51.99 155.07,51.99 155.07,43.4 155.07,34.81 163.66,34.81 172.25,34.81 172.25,26.22 180.84,26.22 
	189.43,26.22 189.43,17.63 180.84,17.63 "/>
<rect x="172.25" y="34.81" width="8.59" height="8.59"/>
<rect x="172.25" y="51.99" width="8.59" height="25.77"/>
<polygon points="172.25,103.53 180.84,103.53 189.43,103.53 189.43,94.94 180.84,94.94 180.84,86.35 172.25,86.35 163.66,86.35 
	163.66,94.94 172.25,94.94 "/>
<polygon points="172.25,112.12 172.25,120.71 180.84,120.71 180.84,129.3 189.43,129.3 189.43,112.12 180.84,112.12 "/>
<polygon points="180.84,258.14 180.84,275.32 189.43,275.32 189.43,249.55 180.84,249.55 172.25,249.55 172.25,258.14 "/>
<polygon points="180.84,163.66 172.25,163.66 172.25,180.84 180.84,180.84 180.84,172.25 189.43,172.25 189.43,146.48 
	180.84,146.48 172.25,146.48 172.25,155.07 180.84,155.07 "/>
<rect x="189.43" y="17.63" width="8.59" height="8.59"/>
<rect x="189.43" y="94.94" width="8.59" height="8.59"/>
<polygon points="198.02,112.12 189.43,112.12 189.43,120.71 198.02,120.71 206.61,120.71 206.61,112.12 "/>
<polygon points="206.61,172.25 206.61,163.66 198.02,163.66 189.43,163.66 189.43,180.84 198.02,180.84 198.02,172.25 "/>
<polygon points="206.61,189.43 206.61,206.61 215.2,206.61 223.79,206.61 223.79,198.02 232.38,198.02 240.97,198.02 240.97,172.25 
	232.38,172.25 223.79,172.25 223.79,180.84 232.38,180.84 232.38,189.43 223.79,189.43 215.2,189.43 206.61,189.43 206.61,180.84 
	198.02,180.84 198.02,189.43 189.43,189.43 189.43,206.61 198.02,206.61 198.02,189.43 "/>
<polygon points="215.2,43.4 215.2,34.81 206.61,34.81 206.61,26.22 198.02,26.22 198.02,34.81 189.43,34.81 189.43,43.4 
	198.02,43.4 206.61,43.4 206.61,51.99 215.2,51.99 "/>
<polygon points="215.2,103.53 223.79,103.53 223.79,94.94 232.38,94.94 232.38,86.35 223.79,86.35 223.79,77.76 215.2,77.76 
	215.2,60.58 206.61,60.58 206.61,51.99 198.02,51.99 189.43,51.99 189.43,77.76 198.02,77.76 198.02,69.17 206.61,69.17 
	206.61,77.76 198.02,77.76 198.02,86.35 206.61,86.35 206.61,112.12 215.2,112.12 "/>
<polygon points="206.61,120.71 206.61,129.3 198.02,129.3 189.43,129.3 189.43,155.07 198.02,155.07 206.61,155.07 206.61,146.48 
	215.2,146.48 215.2,129.3 223.79,129.3 223.79,120.71 215.2,120.71 "/>
<rect x="206.61" y="155.07" width="8.59" height="8.59"/>
<rect x="206.61" y="172.25" width="8.59" height="8.59"/>
<polygon points="206.61,215.2 206.61,206.61 198.02,206.61 198.02,215.2 189.43,215.2 189.43,223.79 198.02,223.79 206.61,223.79 
	206.61,232.38 198.02,232.38 189.43,232.38 189.43,240.97 198.02,240.97 206.61,240.97 215.2,240.97 215.2,215.2 "/>
<polygon points="206.61,283.92 198.02,283.92 189.43,283.92 189.43,292.51 198.02,292.51 206.61,292.51 215.2,292.51 215.2,283.92 
	"/>
<polygon points="223.79,26.22 223.79,17.63 215.2,17.63 206.61,17.63 206.61,26.22 215.2,26.22 "/>
<rect x="215.2" y="51.99" width="8.59" height="8.59"/>
<rect x="215.2" y="163.66" width="8.59" height="8.59"/>
<rect x="223.79" y="43.4" width="8.59" height="8.59"/>
<rect x="223.79" y="69.17" width="8.59" height="8.59"/>
<polygon points="232.38,163.66 240.97,163.66 240.97,155.07 249.56,155.07 249.56,129.3 240.97,129.3 240.97,120.71 249.56,120.71 
	249.56,112.12 240.97,112.12 240.97,103.53 232.38,103.53 232.38,112.12 223.79,112.12 223.79,120.71 232.38,120.71 232.38,155.07 
	223.79,155.07 223.79,163.66 232.38,163.66 "/>
<rect x="223.79" y="206.61" width="8.59" height="8.59"/>
<polygon points="223.79,292.51 215.2,292.51 215.2,301.1 223.79,301.1 232.38,301.1 240.97,301.1 240.97,292.51 232.38,292.51 "/>
<rect x="240.97" y="240.97" width="8.59" height="8.59"/>
<polygon points="266.74,34.81 258.15,34.81 258.15,43.4 258.15,60.58 266.74,60.58 275.33,60.58 283.92,60.58 283.92,43.4 
	283.92,34.81 275.33,34.81 "/>
<path d="M283.91,232.38h-8.59v8.59v8.59h-8.59v-8.59v-17.18h-8.59h-8.59h-8.59h-8.59h-8.59v17.18h-8.59v8.59h-8.59h-8.59h-8.59
	v34.36h8.59v-8.59h8.59v-8.59h-8.59v-8.59h8.59v8.59h8.59v-8.59h8.59v8.59h-8.59v8.59h8.59v8.59h8.59v-8.59h8.59v-8.59h8.59h8.59
	v8.59h8.59h8.59v-17.18h8.59h8.59h8.59v-8.59h-8.59v-8.59h-8.59V232.38z M258.15,240.97v17.18h-8.59h-8.59h-8.59v-17.18v-8.59h8.59
	h8.59h8.59V240.97z"/>
<polygon points="275.33,283.92 266.74,283.92 258.15,283.92 258.15,275.33 249.56,275.33 240.97,275.33 240.97,283.92 
	240.97,292.51 249.56,292.51 249.56,283.92 258.15,283.92 258.15,292.51 249.56,292.51 249.56,301.1 258.15,301.1 258.15,292.51 
	266.74,292.51 266.74,301.1 275.33,301.1 275.33,292.51 283.92,292.51 283.92,283.92 "/>
<path d="M283.92,94.94v-8.59h-8.59h-8.59h-8.59h-8.59h-8.59v17.18h8.59h8.59v17.18h-8.59v8.59h8.59v-8.59h8.59v17.18h8.59v8.59
	h-8.59v-8.59h-8.59v17.18h-8.59v8.59h-8.59v8.59h8.59v25.77h-8.59v8.59v8.59h8.59h8.59v-8.59v-8.59h8.59v8.59v17.18h8.59h8.59h8.59
	v17.18h8.59V215.2h-8.59v-8.59h-8.59v-8.59h-8.59v-8.59h8.59v8.59h8.59v8.59h8.59v-25.77h-8.59v-8.59h-8.59v-8.59h-8.59h-8.59v8.59
	h8.59v8.59h-8.59v-8.59h-8.59v-8.59h8.59v-8.59h8.59v0h8.59v-8.59h8.59v-8.59h8.59v-25.77h-8.59v8.59h-8.59v8.59h-8.59v-8.59h8.59
	v-8.59h8.59v-8.59h8.59v-8.59h-8.59H283.92z M275.33,112.12h-8.59v-8.59h-8.59v-8.59h8.59v8.59h8.59V112.12z"/>
<polygon points="283.91,266.73 283.91,275.32 292.5,275.32 301.09,275.32 301.09,266.73 292.5,266.73 "/>
<rect x="283.92" y="292.5" width="8.59" height="8.59"/>
<path d="M292.5,17.63h-8.59h-8.59h-8.59h-8.59h-8.59h-8.59V43.4v34.36h8.59h8.59h8.59h8.59h8.59h8.59h8.59V43.4V17.63H292.5z
	 M292.5,43.4v25.77h-8.59h-8.59h-8.59h-8.59h-8.59V43.4V26.22h8.59h8.59h8.59h8.59h8.59V43.4z"/>
<rect x="292.5" y="155.07" width="8.59" height="17.18"/>
</svg>
